<svg width="513" height="421" viewBox="0 0 513 421" fill="none" xmlns="http://www.w3.org/2000/svg">
<path d="M48.8072 395.435C35.3977 395.435 23.9224 390.606 14.3813 380.949C4.82396 371.275 0.0452881 359.652 0.0452881 346.079V49.947C0.0452881 36.3743 4.82396 24.7511 14.3813 15.0775C23.9224 5.42027 35.3977 0.591675 48.8072 0.591675L97.5691 99.3024H170.712L121.95 0.591675H170.712L219.474 99.3024H292.617L243.855 0.591675H292.617L341.379 99.3024H414.521L365.76 0.591675H438.902C452.312 0.591675 463.795 5.42027 473.353 15.0775C482.894 24.7511 487.664 36.3743 487.664 49.947V148.658H48.8072V346.079H243.855V395.435H48.8072ZM418.179 239.965L470.598 291.788L351.74 412.709C349.302 415.177 346.564 417.027 343.524 418.261C340.468 419.495 337.315 420.112 334.064 420.112H304.807C301.556 420.112 298.712 418.878 296.274 416.411C293.836 413.943 292.617 411.064 292.617 407.773V378.16C292.617 374.87 293.332 371.579 294.762 368.289C296.176 364.999 297.899 362.325 299.931 360.269L418.179 239.965ZM488.274 274.514L436.464 222.074L453.531 204.799C458.407 199.864 464.299 197.396 471.207 197.396C478.115 197.396 483.804 199.864 488.274 204.799L505.34 222.691C509.81 227.626 512.045 233.483 512.045 240.261C512.045 247.056 509.81 252.715 505.34 257.24L488.274 274.514Z" fill="#F3F3F3"/>
</svg>
